<mxfile host="app.diagrams.net" agent="Mozilla/5.0 (Macintosh; Intel Mac OS X 10_15_7) AppleWebKit/537.36 (KHTML, like Gecko) Chrome/131.0.0.0 Safari/537.36" version="26.0.3">
  <diagram name="Page-1" id="LunbslX0Evs03NKJAvEa">
    <mxGraphModel dx="1736" dy="1094" grid="1" gridSize="10" guides="1" tooltips="1" connect="1" arrows="1" fold="1" page="1" pageScale="1" pageWidth="850" pageHeight="1100" math="0" shadow="0">
      <root>
        <mxCell id="0" />
        <mxCell id="1" parent="0" />
        <mxCell id="6I0IBt6VjiBRJyW0qzqn-29" style="edgeStyle=orthogonalEdgeStyle;rounded=0;orthogonalLoop=1;jettySize=auto;html=1;exitX=0.5;exitY=1;exitDx=0;exitDy=0;" edge="1" parent="1" source="6I0IBt6VjiBRJyW0qzqn-1" target="6I0IBt6VjiBRJyW0qzqn-3">
          <mxGeometry relative="1" as="geometry" />
        </mxCell>
        <mxCell id="6I0IBt6VjiBRJyW0qzqn-102" style="edgeStyle=orthogonalEdgeStyle;rounded=0;orthogonalLoop=1;jettySize=auto;html=1;exitX=1;exitY=0.5;exitDx=0;exitDy=0;entryX=-0.05;entryY=0.397;entryDx=0;entryDy=0;entryPerimeter=0;" edge="1" parent="1" source="6I0IBt6VjiBRJyW0qzqn-1" target="6I0IBt6VjiBRJyW0qzqn-99">
          <mxGeometry relative="1" as="geometry">
            <mxPoint x="840" y="310" as="targetPoint" />
            <Array as="points">
              <mxPoint x="350" y="340" />
              <mxPoint x="350" y="270" />
              <mxPoint x="810" y="270" />
              <mxPoint x="810" y="595" />
            </Array>
          </mxGeometry>
        </mxCell>
        <mxCell id="6I0IBt6VjiBRJyW0qzqn-1" value="WEB APP" style="rounded=1;whiteSpace=wrap;html=1;fillColor=#99FFFF;" vertex="1" parent="1">
          <mxGeometry x="155" y="310" width="275" height="60" as="geometry" />
        </mxCell>
        <mxCell id="6I0IBt6VjiBRJyW0qzqn-93" style="edgeStyle=orthogonalEdgeStyle;rounded=0;orthogonalLoop=1;jettySize=auto;html=1;exitX=0.5;exitY=0.5;exitDx=0;exitDy=0;exitPerimeter=0;entryX=0.5;entryY=0;entryDx=0;entryDy=0;" edge="1" parent="1" source="6I0IBt6VjiBRJyW0qzqn-2" target="6I0IBt6VjiBRJyW0qzqn-82">
          <mxGeometry relative="1" as="geometry" />
        </mxCell>
        <mxCell id="6I0IBt6VjiBRJyW0qzqn-94" style="edgeStyle=orthogonalEdgeStyle;rounded=0;orthogonalLoop=1;jettySize=auto;html=1;exitX=0.5;exitY=0.5;exitDx=0;exitDy=0;exitPerimeter=0;entryX=0.5;entryY=0;entryDx=0;entryDy=0;" edge="1" parent="1" source="6I0IBt6VjiBRJyW0qzqn-2" target="6I0IBt6VjiBRJyW0qzqn-83">
          <mxGeometry relative="1" as="geometry" />
        </mxCell>
        <mxCell id="6I0IBt6VjiBRJyW0qzqn-2" value="user" style="shape=umlActor;verticalLabelPosition=bottom;verticalAlign=top;html=1;outlineConnect=0;" vertex="1" parent="1">
          <mxGeometry x="150" y="150" width="30" height="60" as="geometry" />
        </mxCell>
        <mxCell id="6I0IBt6VjiBRJyW0qzqn-30" style="edgeStyle=orthogonalEdgeStyle;rounded=0;orthogonalLoop=1;jettySize=auto;html=1;exitX=0.5;exitY=1;exitDx=0;exitDy=0;entryX=0.5;entryY=0;entryDx=0;entryDy=0;" edge="1" parent="1" source="6I0IBt6VjiBRJyW0qzqn-3" target="6I0IBt6VjiBRJyW0qzqn-9">
          <mxGeometry relative="1" as="geometry" />
        </mxCell>
        <mxCell id="6I0IBt6VjiBRJyW0qzqn-31" style="edgeStyle=orthogonalEdgeStyle;rounded=0;orthogonalLoop=1;jettySize=auto;html=1;exitX=0.5;exitY=1;exitDx=0;exitDy=0;entryX=0.5;entryY=0;entryDx=0;entryDy=0;" edge="1" parent="1" source="6I0IBt6VjiBRJyW0qzqn-3">
          <mxGeometry relative="1" as="geometry">
            <mxPoint x="380" y="680" as="targetPoint" />
          </mxGeometry>
        </mxCell>
        <mxCell id="6I0IBt6VjiBRJyW0qzqn-32" style="edgeStyle=orthogonalEdgeStyle;rounded=0;orthogonalLoop=1;jettySize=auto;html=1;exitX=0.5;exitY=1;exitDx=0;exitDy=0;entryX=0.5;entryY=0;entryDx=0;entryDy=0;" edge="1" parent="1" source="6I0IBt6VjiBRJyW0qzqn-3">
          <mxGeometry relative="1" as="geometry">
            <mxPoint x="550" y="680" as="targetPoint" />
          </mxGeometry>
        </mxCell>
        <mxCell id="6I0IBt6VjiBRJyW0qzqn-33" style="edgeStyle=orthogonalEdgeStyle;rounded=0;orthogonalLoop=1;jettySize=auto;html=1;exitX=0.5;exitY=1;exitDx=0;exitDy=0;entryX=0.5;entryY=0;entryDx=0;entryDy=0;" edge="1" parent="1" source="6I0IBt6VjiBRJyW0qzqn-3">
          <mxGeometry relative="1" as="geometry">
            <mxPoint x="710" y="680" as="targetPoint" />
          </mxGeometry>
        </mxCell>
        <mxCell id="6I0IBt6VjiBRJyW0qzqn-3" value="GQL Server/Federation or&amp;nbsp;Dispatcher" style="rounded=1;whiteSpace=wrap;html=1;fillColor=#FF9999;" vertex="1" parent="1">
          <mxGeometry x="150" y="440" width="580" height="130" as="geometry" />
        </mxCell>
        <mxCell id="6I0IBt6VjiBRJyW0qzqn-4" value="" style="rounded=0;whiteSpace=wrap;html=1;fillColor=#99FF99;" vertex="1" parent="1">
          <mxGeometry x="150" y="680" width="120" height="230" as="geometry" />
        </mxCell>
        <mxCell id="6I0IBt6VjiBRJyW0qzqn-9" value="load balancer&amp;nbsp;&lt;div&gt;aws pods&lt;/div&gt;" style="rounded=0;whiteSpace=wrap;html=1;fillColor=#66FF66;" vertex="1" parent="1">
          <mxGeometry x="150" y="680" width="120" height="60" as="geometry" />
        </mxCell>
        <mxCell id="6I0IBt6VjiBRJyW0qzqn-10" value="s1" style="whiteSpace=wrap;html=1;aspect=fixed;fillColor=#CCFF99;" vertex="1" parent="1">
          <mxGeometry x="155" y="747.5" width="45" height="45" as="geometry" />
        </mxCell>
        <mxCell id="6I0IBt6VjiBRJyW0qzqn-44" value="s2" style="whiteSpace=wrap;html=1;aspect=fixed;fillColor=#CCFF99;" vertex="1" parent="1">
          <mxGeometry x="220" y="747.5" width="45" height="45" as="geometry" />
        </mxCell>
        <mxCell id="6I0IBt6VjiBRJyW0qzqn-45" value="s3" style="whiteSpace=wrap;html=1;aspect=fixed;fillColor=#CCFF99;" vertex="1" parent="1">
          <mxGeometry x="187.5" y="807.5" width="45" height="45" as="geometry" />
        </mxCell>
        <mxCell id="6I0IBt6VjiBRJyW0qzqn-46" value="" style="rounded=0;whiteSpace=wrap;html=1;fillColor=#33FFFF;" vertex="1" parent="1">
          <mxGeometry x="320" y="680" width="120" height="230" as="geometry" />
        </mxCell>
        <mxCell id="6I0IBt6VjiBRJyW0qzqn-47" value="load balancer&amp;nbsp;&lt;div&gt;aws pods&lt;/div&gt;" style="rounded=0;whiteSpace=wrap;html=1;fillColor=#66FFFF;" vertex="1" parent="1">
          <mxGeometry x="320" y="680" width="120" height="60" as="geometry" />
        </mxCell>
        <mxCell id="6I0IBt6VjiBRJyW0qzqn-48" value="s1" style="whiteSpace=wrap;html=1;aspect=fixed;fillColor=#99FFFF;" vertex="1" parent="1">
          <mxGeometry x="325" y="747.5" width="45" height="45" as="geometry" />
        </mxCell>
        <mxCell id="6I0IBt6VjiBRJyW0qzqn-49" value="s2" style="whiteSpace=wrap;html=1;aspect=fixed;fillColor=#99FFFF;" vertex="1" parent="1">
          <mxGeometry x="390" y="747.5" width="45" height="45" as="geometry" />
        </mxCell>
        <mxCell id="6I0IBt6VjiBRJyW0qzqn-50" value="s3" style="whiteSpace=wrap;html=1;aspect=fixed;fillColor=#99FFFF;" vertex="1" parent="1">
          <mxGeometry x="357.5" y="807.5" width="45" height="45" as="geometry" />
        </mxCell>
        <mxCell id="6I0IBt6VjiBRJyW0qzqn-51" value="" style="rounded=0;whiteSpace=wrap;html=1;fillColor=#FF66B3;" vertex="1" parent="1">
          <mxGeometry x="490" y="680" width="120" height="230" as="geometry" />
        </mxCell>
        <mxCell id="6I0IBt6VjiBRJyW0qzqn-52" value="load balancer&amp;nbsp;&lt;div&gt;aws pods&lt;/div&gt;" style="rounded=0;whiteSpace=wrap;html=1;fillColor=#FFCCFF;" vertex="1" parent="1">
          <mxGeometry x="490" y="680" width="120" height="60" as="geometry" />
        </mxCell>
        <mxCell id="6I0IBt6VjiBRJyW0qzqn-53" value="s1" style="whiteSpace=wrap;html=1;aspect=fixed;fillColor=#FFCCFF;" vertex="1" parent="1">
          <mxGeometry x="495" y="747.5" width="45" height="45" as="geometry" />
        </mxCell>
        <mxCell id="6I0IBt6VjiBRJyW0qzqn-54" value="s2" style="whiteSpace=wrap;html=1;aspect=fixed;fillColor=#FFCCFF;" vertex="1" parent="1">
          <mxGeometry x="560" y="747.5" width="45" height="45" as="geometry" />
        </mxCell>
        <mxCell id="6I0IBt6VjiBRJyW0qzqn-55" value="s3" style="whiteSpace=wrap;html=1;aspect=fixed;fillColor=#FFCCFF;" vertex="1" parent="1">
          <mxGeometry x="527.5" y="807.5" width="45" height="45" as="geometry" />
        </mxCell>
        <mxCell id="6I0IBt6VjiBRJyW0qzqn-56" value="" style="rounded=0;whiteSpace=wrap;html=1;fillColor=#FFE6CC;" vertex="1" parent="1">
          <mxGeometry x="650" y="680" width="120" height="230" as="geometry" />
        </mxCell>
        <mxCell id="6I0IBt6VjiBRJyW0qzqn-57" value="load balancer&amp;nbsp;&lt;div&gt;aws pods&lt;/div&gt;" style="rounded=0;whiteSpace=wrap;html=1;fillColor=#FFCC99;" vertex="1" parent="1">
          <mxGeometry x="650" y="680" width="120" height="60" as="geometry" />
        </mxCell>
        <mxCell id="6I0IBt6VjiBRJyW0qzqn-58" value="s1" style="whiteSpace=wrap;html=1;aspect=fixed;fillColor=#FFE599;" vertex="1" parent="1">
          <mxGeometry x="655" y="747.5" width="45" height="45" as="geometry" />
        </mxCell>
        <mxCell id="6I0IBt6VjiBRJyW0qzqn-59" value="s2" style="whiteSpace=wrap;html=1;aspect=fixed;fillColor=#FFE599;" vertex="1" parent="1">
          <mxGeometry x="720" y="747.5" width="45" height="45" as="geometry" />
        </mxCell>
        <mxCell id="6I0IBt6VjiBRJyW0qzqn-60" value="s3" style="whiteSpace=wrap;html=1;aspect=fixed;fillColor=#FFE599;" vertex="1" parent="1">
          <mxGeometry x="687.5" y="807.5" width="45" height="45" as="geometry" />
        </mxCell>
        <mxCell id="6I0IBt6VjiBRJyW0qzqn-63" value="" style="rounded=0;whiteSpace=wrap;html=1;fillColor=#FFFFCC;" vertex="1" parent="1">
          <mxGeometry x="130" y="1010" width="240" height="210" as="geometry" />
        </mxCell>
        <mxCell id="6I0IBt6VjiBRJyW0qzqn-64" value="DB CLUSTER MAIN APP" style="rounded=0;whiteSpace=wrap;html=1;fillColor=#FFFF66;" vertex="1" parent="1">
          <mxGeometry x="130" y="1010" width="240" height="60" as="geometry" />
        </mxCell>
        <mxCell id="6I0IBt6VjiBRJyW0qzqn-66" value="DB" style="shape=cylinder3;whiteSpace=wrap;html=1;boundedLbl=1;backgroundOutline=1;size=15;fillColor=#FFFF99;" vertex="1" parent="1">
          <mxGeometry x="140" y="1110" width="60" height="80" as="geometry" />
        </mxCell>
        <mxCell id="6I0IBt6VjiBRJyW0qzqn-69" value="DB" style="shape=cylinder3;whiteSpace=wrap;html=1;boundedLbl=1;backgroundOutline=1;size=15;fillColor=#FFFF99;" vertex="1" parent="1">
          <mxGeometry x="220" y="1110" width="60" height="80" as="geometry" />
        </mxCell>
        <mxCell id="6I0IBt6VjiBRJyW0qzqn-70" value="DB" style="shape=cylinder3;whiteSpace=wrap;html=1;boundedLbl=1;backgroundOutline=1;size=15;fillColor=#FFFF99;" vertex="1" parent="1">
          <mxGeometry x="297.5" y="1110" width="60" height="80" as="geometry" />
        </mxCell>
        <mxCell id="6I0IBt6VjiBRJyW0qzqn-73" value="" style="rounded=0;whiteSpace=wrap;html=1;fillColor=#FFCC99;" vertex="1" parent="1">
          <mxGeometry x="480" y="1010" width="240" height="210" as="geometry" />
        </mxCell>
        <mxCell id="6I0IBt6VjiBRJyW0qzqn-74" value="DB CLUSTER DATA WAREHOUSE" style="rounded=0;whiteSpace=wrap;html=1;fillColor=#FFB366;" vertex="1" parent="1">
          <mxGeometry x="480" y="1010" width="240" height="60" as="geometry" />
        </mxCell>
        <mxCell id="6I0IBt6VjiBRJyW0qzqn-75" value="DB" style="shape=cylinder3;whiteSpace=wrap;html=1;boundedLbl=1;backgroundOutline=1;size=15;fillColor=#FFFF99;" vertex="1" parent="1">
          <mxGeometry x="490" y="1110" width="60" height="80" as="geometry" />
        </mxCell>
        <mxCell id="6I0IBt6VjiBRJyW0qzqn-76" value="DB" style="shape=cylinder3;whiteSpace=wrap;html=1;boundedLbl=1;backgroundOutline=1;size=15;fillColor=#FFFF99;" vertex="1" parent="1">
          <mxGeometry x="570" y="1110" width="60" height="80" as="geometry" />
        </mxCell>
        <mxCell id="6I0IBt6VjiBRJyW0qzqn-77" value="DB" style="shape=cylinder3;whiteSpace=wrap;html=1;boundedLbl=1;backgroundOutline=1;size=15;fillColor=#FFFF99;" vertex="1" parent="1">
          <mxGeometry x="647.5" y="1110" width="60" height="80" as="geometry" />
        </mxCell>
        <mxCell id="6I0IBt6VjiBRJyW0qzqn-86" style="edgeStyle=orthogonalEdgeStyle;rounded=0;orthogonalLoop=1;jettySize=auto;html=1;exitX=0.5;exitY=1;exitDx=0;exitDy=0;entryX=0.5;entryY=0;entryDx=0;entryDy=0;" edge="1" parent="1" source="6I0IBt6VjiBRJyW0qzqn-82" target="6I0IBt6VjiBRJyW0qzqn-3">
          <mxGeometry relative="1" as="geometry" />
        </mxCell>
        <mxCell id="6I0IBt6VjiBRJyW0qzqn-101" style="edgeStyle=orthogonalEdgeStyle;rounded=0;orthogonalLoop=1;jettySize=auto;html=1;exitX=1;exitY=0.5;exitDx=0;exitDy=0;entryX=-0.067;entryY=0.308;entryDx=0;entryDy=0;entryPerimeter=0;" edge="1" parent="1" source="6I0IBt6VjiBRJyW0qzqn-82" target="6I0IBt6VjiBRJyW0qzqn-99">
          <mxGeometry relative="1" as="geometry">
            <mxPoint x="640" y="240" as="targetPoint" />
            <Array as="points">
              <mxPoint x="570" y="340" />
              <mxPoint x="570" y="250" />
              <mxPoint x="800" y="250" />
              <mxPoint x="800" y="560" />
            </Array>
          </mxGeometry>
        </mxCell>
        <mxCell id="6I0IBt6VjiBRJyW0qzqn-82" value="MOBILE" style="rounded=1;whiteSpace=wrap;html=1;fillColor=#CCFF99;" vertex="1" parent="1">
          <mxGeometry x="480" y="310" width="120" height="60" as="geometry" />
        </mxCell>
        <mxCell id="6I0IBt6VjiBRJyW0qzqn-88" style="edgeStyle=orthogonalEdgeStyle;rounded=0;orthogonalLoop=1;jettySize=auto;html=1;exitX=0.5;exitY=1;exitDx=0;exitDy=0;entryX=0.5;entryY=0;entryDx=0;entryDy=0;" edge="1" parent="1" source="6I0IBt6VjiBRJyW0qzqn-83" target="6I0IBt6VjiBRJyW0qzqn-3">
          <mxGeometry relative="1" as="geometry" />
        </mxCell>
        <mxCell id="6I0IBt6VjiBRJyW0qzqn-83" value="POS" style="rounded=1;whiteSpace=wrap;html=1;fillColor=#FFFFCC;" vertex="1" parent="1">
          <mxGeometry x="645" y="310" width="120" height="60" as="geometry" />
        </mxCell>
        <mxCell id="6I0IBt6VjiBRJyW0qzqn-90" value="USER SERVICE" style="rounded=0;whiteSpace=wrap;html=1;fillColor=#66CC00;" vertex="1" parent="1">
          <mxGeometry x="150" y="880" width="120" height="30" as="geometry" />
        </mxCell>
        <mxCell id="6I0IBt6VjiBRJyW0qzqn-92" style="edgeStyle=orthogonalEdgeStyle;rounded=0;orthogonalLoop=1;jettySize=auto;html=1;exitX=0.5;exitY=0.5;exitDx=0;exitDy=0;exitPerimeter=0;entryX=0.476;entryY=-0.017;entryDx=0;entryDy=0;entryPerimeter=0;" edge="1" parent="1" source="6I0IBt6VjiBRJyW0qzqn-2" target="6I0IBt6VjiBRJyW0qzqn-1">
          <mxGeometry relative="1" as="geometry" />
        </mxCell>
        <mxCell id="6I0IBt6VjiBRJyW0qzqn-96" style="edgeStyle=orthogonalEdgeStyle;rounded=0;orthogonalLoop=1;jettySize=auto;html=1;exitX=0.5;exitY=1;exitDx=0;exitDy=0;entryX=0.5;entryY=0;entryDx=0;entryDy=0;" edge="1" parent="1" source="6I0IBt6VjiBRJyW0qzqn-95" target="6I0IBt6VjiBRJyW0qzqn-74">
          <mxGeometry relative="1" as="geometry" />
        </mxCell>
        <mxCell id="6I0IBt6VjiBRJyW0qzqn-95" value="PRODUCT SERVICE" style="rounded=0;whiteSpace=wrap;html=1;fillColor=#3399FF;" vertex="1" parent="1">
          <mxGeometry x="320" y="880" width="120" height="30" as="geometry" />
        </mxCell>
        <mxCell id="6I0IBt6VjiBRJyW0qzqn-104" style="edgeStyle=orthogonalEdgeStyle;rounded=0;orthogonalLoop=1;jettySize=auto;html=1;exitX=0.5;exitY=1;exitDx=0;exitDy=0;" edge="1" parent="1" source="6I0IBt6VjiBRJyW0qzqn-97">
          <mxGeometry relative="1" as="geometry">
            <mxPoint x="900" y="840" as="targetPoint" />
          </mxGeometry>
        </mxCell>
        <mxCell id="6I0IBt6VjiBRJyW0qzqn-97" value="NOTIFICATION" style="rounded=0;whiteSpace=wrap;html=1;fillColor=#FF99FF;" vertex="1" parent="1">
          <mxGeometry x="490" y="885" width="120" height="25" as="geometry" />
        </mxCell>
        <mxCell id="6I0IBt6VjiBRJyW0qzqn-107" style="edgeStyle=orthogonalEdgeStyle;rounded=0;orthogonalLoop=1;jettySize=auto;html=1;exitX=0.5;exitY=1;exitDx=0;exitDy=0;entryX=0.588;entryY=-0.067;entryDx=0;entryDy=0;entryPerimeter=0;" edge="1" parent="1" source="6I0IBt6VjiBRJyW0qzqn-98" target="6I0IBt6VjiBRJyW0qzqn-64">
          <mxGeometry relative="1" as="geometry">
            <mxPoint x="270" y="1000" as="targetPoint" />
          </mxGeometry>
        </mxCell>
        <mxCell id="6I0IBt6VjiBRJyW0qzqn-98" value="SHIPPING SERVICE" style="rounded=0;whiteSpace=wrap;html=1;fillColor=#FF9933;" vertex="1" parent="1">
          <mxGeometry x="650" y="885" width="120" height="25" as="geometry" />
        </mxCell>
        <mxCell id="6I0IBt6VjiBRJyW0qzqn-109" style="edgeStyle=orthogonalEdgeStyle;rounded=0;orthogonalLoop=1;jettySize=auto;html=1;exitX=0.5;exitY=0;exitDx=0;exitDy=0;exitPerimeter=0;entryX=0.5;entryY=1;entryDx=0;entryDy=0;" edge="1" parent="1" source="6I0IBt6VjiBRJyW0qzqn-99" target="6I0IBt6VjiBRJyW0qzqn-108">
          <mxGeometry relative="1" as="geometry" />
        </mxCell>
        <mxCell id="6I0IBt6VjiBRJyW0qzqn-99" value="SQS/SNS" style="shape=cylinder3;whiteSpace=wrap;html=1;boundedLbl=1;backgroundOutline=1;size=15;fillColor=#99CCFF;" vertex="1" parent="1">
          <mxGeometry x="870" y="440" width="60" height="390" as="geometry" />
        </mxCell>
        <mxCell id="6I0IBt6VjiBRJyW0qzqn-103" style="edgeStyle=orthogonalEdgeStyle;rounded=0;orthogonalLoop=1;jettySize=auto;html=1;exitX=1;exitY=0.5;exitDx=0;exitDy=0;entryX=0;entryY=0.5;entryDx=0;entryDy=0;entryPerimeter=0;" edge="1" parent="1" source="6I0IBt6VjiBRJyW0qzqn-83" target="6I0IBt6VjiBRJyW0qzqn-99">
          <mxGeometry relative="1" as="geometry" />
        </mxCell>
        <mxCell id="6I0IBt6VjiBRJyW0qzqn-106" style="edgeStyle=orthogonalEdgeStyle;rounded=0;orthogonalLoop=1;jettySize=auto;html=1;exitX=0.5;exitY=1;exitDx=0;exitDy=0;entryX=0.454;entryY=-0.05;entryDx=0;entryDy=0;entryPerimeter=0;" edge="1" parent="1" source="6I0IBt6VjiBRJyW0qzqn-90" target="6I0IBt6VjiBRJyW0qzqn-64">
          <mxGeometry relative="1" as="geometry" />
        </mxCell>
        <mxCell id="6I0IBt6VjiBRJyW0qzqn-110" style="edgeStyle=orthogonalEdgeStyle;rounded=0;orthogonalLoop=1;jettySize=auto;html=1;exitX=0;exitY=0.5;exitDx=0;exitDy=0;entryX=0.5;entryY=0;entryDx=0;entryDy=0;" edge="1" parent="1" source="6I0IBt6VjiBRJyW0qzqn-108" target="6I0IBt6VjiBRJyW0qzqn-82">
          <mxGeometry relative="1" as="geometry">
            <Array as="points">
              <mxPoint x="860" y="270" />
              <mxPoint x="540" y="270" />
            </Array>
          </mxGeometry>
        </mxCell>
        <mxCell id="6I0IBt6VjiBRJyW0qzqn-108" value="PUSH" style="whiteSpace=wrap;html=1;aspect=fixed;fillColor=#D4E1F5;" vertex="1" parent="1">
          <mxGeometry x="860" y="240" width="80" height="80" as="geometry" />
        </mxCell>
      </root>
    </mxGraphModel>
  </diagram>
</mxfile>
